{
	"asset":{
		"generator":"Khronos glTF Blender I/O v4.2.57",
		"version":"2.0"
	},
	"scene":0,
	"scenes":[
		{
			"name":"Scene",
			"nodes":[
				0
			]
		}
	],
	"nodes":[
		{
			"mesh":0,
			"name":"Screen",
			"rotation":[
				0,
				-0.8528282046318054,
				0,
				0.5221917629241943
			],
			"translation":[
				0.4536285102367401,
				0.938627302646637,
				-1.7225621938705444
			]
		}
	],
	"materials":[
		{
			"doubleSided":true,
			"name":"Screen",
			"pbrMetallicRoughness":{
				"baseColorFactor":[
					0.800000011920929,
					0.800000011920929,
					0.800000011920929,
					1
				],
				"metallicFactor":0.12811388075351715,
				"roughnessFactor":0.5
			}
		}
	],
	"meshes":[
		{
			"name":"iMac_1.001",
			"primitives":[
				{
					"attributes":{
						"POSITION":0,
						"NORMAL":1,
						"TEXCOORD_0":2
					},
					"indices":3,
					"material":0
				}
			]
		}
	],
	"accessors":[
		{
			"bufferView":0,
			"componentType":5126,
			"count":4,
			"max":[
				0.08742553740739822,
				0.5847203135490417,
				0.3089582622051239
			],
			"min":[
				0.024868952110409737,
				0.2410517781972885,
				-0.3089582622051239
			],
			"type":"VEC3"
		},
		{
			"bufferView":1,
			"componentType":5126,
			"count":4,
			"type":"VEC3"
		},
		{
			"bufferView":2,
			"componentType":5126,
			"count":4,
			"type":"VEC2"
		},
		{
			"bufferView":3,
			"componentType":5123,
			"count":6,
			"type":"SCALAR"
		}
	],
	"bufferViews":[
		{
			"buffer":0,
			"byteLength":48,
			"byteOffset":0,
			"target":34962
		},
		{
			"buffer":0,
			"byteLength":48,
			"byteOffset":48,
			"target":34962
		},
		{
			"buffer":0,
			"byteLength":32,
			"byteOffset":96,
			"target":34962
		},
		{
			"buffer":0,
			"byteLength":12,
			"byteOffset":128,
			"target":34963
		}
	],
	"buffers":[
		{
			"byteLength":140,
			"uri":"scenepp2.bin"
		}
	]
}
